HIERARCHY
ROOT Model
{
	OFFSET 0 0 0
	CHANNELS 6 Xposition Yposition Zposition Zrotation Xrotation Yrotation
	JOINT Model1
	{
		OFFSET 0 -2.25479 2.99384
		CHANNELS 3 Zrotation Xrotation Yrotation
		JOINT Model2
		{
			OFFSET 12.111 0 0
			CHANNELS 3 Zrotation Xrotation Yrotation
			JOINT Model3
			{
				OFFSET 11.5502 0 0
				CHANNELS 3 Zrotation Xrotation Yrotation
				JOINT Model4
				{
					OFFSET 11.781 0 0
					CHANNELS 3 Zrotation Xrotation Yrotation
					JOINT Model5
					{
						OFFSET 20.0601 0 0
						CHANNELS 3 Zrotation Xrotation Yrotation
						JOINT Model6
						{
							OFFSET 11.1962 0 0
							CHANNELS 3 Zrotation Xrotation Yrotation
							End Site
							{
								OFFSET 0 0 0
							}
						}
					}
					JOINT Model7
					{
						OFFSET 10.8223 0.417534 3.51114
						CHANNELS 3 Zrotation Xrotation Yrotation
						JOINT Model8
						{
							OFFSET -6.07943 0 0
							CHANNELS 3 Zrotation Xrotation Yrotation
							JOINT Model9
							{
								OFFSET -0.277416 10.39 -0.051239
								CHANNELS 3 Zrotation Xrotation Yrotation
								JOINT Model10
								{
									OFFSET -3.4391 -0.282043 1.86679
									CHANNELS 3 Zrotation Xrotation Yrotation
									JOINT Model11
									{
										OFFSET 13.0269 0 0
										CHANNELS 3 Zrotation Xrotation Yrotation
										JOINT Model12
										{
											OFFSET 10.8866 0 0
											CHANNELS 3 Zrotation Xrotation Yrotation
											JOINT Model13
											{
												OFFSET 16.7317 0 0
												CHANNELS 3 Zrotation Xrotation Yrotation
												JOINT Model14
												{
													OFFSET 11.8292 0 0
													CHANNELS 3 Zrotation Xrotation Yrotation
													JOINT Model15
													{
														OFFSET 4.82751 -3.73566 -0.836517
														CHANNELS 3 Zrotation Xrotation Yrotation
														JOINT Model16
														{
															OFFSET 3.75311 -0.0582886 -0.0186462
															CHANNELS 3 Zrotation Xrotation Yrotation
															JOINT Model17
															{
																OFFSET 2.88688 0.0192337 0.014801
																CHANNELS 3 Zrotation Xrotation Yrotation
																End Site
																{
																	OFFSET 0 0 0
																}
															}
														}
													}
													JOINT Model18
													{
														OFFSET 9.72197 -3.06458 0.23877
														CHANNELS 3 Zrotation Xrotation Yrotation
														JOINT Model19
														{
															OFFSET 4.61131 0 0
															CHANNELS 3 Zrotation Xrotation Yrotation
															JOINT Model20
															{
																OFFSET 2.8969 -7.62939e-006 0
																CHANNELS 3 Zrotation Xrotation Yrotation
																End Site
																{
																	OFFSET 0 0 0
																}
															}
														}
													}
													JOINT Model21
													{
														OFFSET 9.54431 -0.745064 0.588928
														CHANNELS 3 Zrotation Xrotation Yrotation
														JOINT Model22
														{
															OFFSET 5.33978 0 0
															CHANNELS 3 Zrotation Xrotation Yrotation
															JOINT Model23
															{
																OFFSET 3.03619 7.62939e-006 0
																CHANNELS 3 Zrotation Xrotation Yrotation
																End Site
																{
																	OFFSET 0 0 0
																}
															}
														}
													}
													JOINT Model24
													{
														OFFSET 9.47759 1.51286 0.485107
														CHANNELS 3 Zrotation Xrotation Yrotation
														JOINT Model25
														{
															OFFSET 4.96136 7.62939e-006 0
															CHANNELS 3 Zrotation Xrotation Yrotation
															JOINT Model26
															{
																OFFSET 2.51966 0 0
																CHANNELS 3 Zrotation Xrotation Yrotation
																End Site
																{
																	OFFSET 0 0 0
																}
															}
														}
													}
													JOINT Model27
													{
														OFFSET 9.34247 3.34117 -0.239288
														CHANNELS 3 Zrotation Xrotation Yrotation
														JOINT Model28
														{
															OFFSET 3.2826 2.28882e-005 0
															CHANNELS 3 Zrotation Xrotation Yrotation
															JOINT Model29
															{
																OFFSET 2.1292 0 0
																CHANNELS 3 Zrotation Xrotation Yrotation
																End Site
																{
																	OFFSET 0 0 0
																}
															}
														}
													}
												}
											}
										}
									}
								}
							}
						}
					}
					JOINT Model30
					{
						OFFSET 10.8223 0.4179 -3.51108
						CHANNELS 3 Zrotation Xrotation Yrotation
						JOINT Model31
						{
							OFFSET 6.07943 0 0
							CHANNELS 3 Zrotation Xrotation Yrotation
							JOINT Model32
							{
								OFFSET 0.277416 -10.39 0.051239
								CHANNELS 3 Zrotation Xrotation Yrotation
								JOINT Model33
								{
									OFFSET 3.4391 0.282043 -1.86679
									CHANNELS 3 Zrotation Xrotation Yrotation
									JOINT Model34
									{
										OFFSET -13.0269 0 0
										CHANNELS 3 Zrotation Xrotation Yrotation
										JOINT Model35
										{
											OFFSET -10.8866 0 0
											CHANNELS 3 Zrotation Xrotation Yrotation
											JOINT Model36
											{
												OFFSET -16.7317 0 0
												CHANNELS 3 Zrotation Xrotation Yrotation
												JOINT Model37
												{
													OFFSET -11.8292 0 0
													CHANNELS 3 Zrotation Xrotation Yrotation
													JOINT Model38
													{
														OFFSET -4.82751 3.73566 0.836517
														CHANNELS 3 Zrotation Xrotation Yrotation
														JOINT Model39
														{
															OFFSET -3.75311 0.0582886 0.0186462
															CHANNELS 3 Zrotation Xrotation Yrotation
															JOINT Model40
															{
																OFFSET -2.88688 -0.0192337 -0.014801
																CHANNELS 3 Zrotation Xrotation Yrotation
																End Site
																{
																	OFFSET 0 0 0
																}
															}
														}
													}
													JOINT Model41
													{
														OFFSET -9.72197 3.06459 -0.23877
														CHANNELS 3 Zrotation Xrotation Yrotation
														JOINT Model42
														{
															OFFSET -4.6113 0 0
															CHANNELS 3 Zrotation Xrotation Yrotation
															JOINT Model43
															{
																OFFSET -2.8969 0 0
																CHANNELS 3 Zrotation Xrotation Yrotation
																End Site
																{
																	OFFSET 0 0 0
																}
															}
														}
													}
													JOINT Model44
													{
														OFFSET -9.5443 0.745064 -0.588928
														CHANNELS 3 Zrotation Xrotation Yrotation
														JOINT Model45
														{
															OFFSET -5.33978 0 0
															CHANNELS 3 Zrotation Xrotation Yrotation
															JOINT Model46
															{
																OFFSET -3.03619 -1.52588e-005 0
																CHANNELS 3 Zrotation Xrotation Yrotation
																End Site
																{
																	OFFSET 0 0 0
																}
															}
														}
													}
													JOINT Model47
													{
														OFFSET -9.47759 -1.51286 -0.485107
														CHANNELS 3 Zrotation Xrotation Yrotation
														JOINT Model48
														{
															OFFSET -4.96136 -1.52588e-005 0
															CHANNELS 3 Zrotation Xrotation Yrotation
															JOINT Model49
															{
																OFFSET -2.51966 0 0
																CHANNELS 3 Zrotation Xrotation Yrotation
																End Site
																{
																	OFFSET 0 0 0
																}
															}
														}
													}
													JOINT Model50
													{
														OFFSET -9.34246 -3.34118 0.239288
														CHANNELS 3 Zrotation Xrotation Yrotation
														JOINT Model51
														{
															OFFSET -3.2826 -2.28882e-005 0
															CHANNELS 3 Zrotation Xrotation Yrotation
															JOINT Model52
															{
																OFFSET -2.1292 0 0
																CHANNELS 3 Zrotation Xrotation Yrotation
																End Site
																{
																	OFFSET 0 0 0
																}
															}
														}
													}
												}
											}
										}
									}
								}
							}
						}
					}
				}
			}
		}
	}
	JOINT Model53
	{
		OFFSET 4.38026 -2.14632 -1.11517
		CHANNELS 3 Zrotation Xrotation Yrotation
		JOINT Model54
		{
			OFFSET 0 0 4.94998
			CHANNELS 3 Zrotation Xrotation Yrotation
			JOINT Model55
			{
				OFFSET 18.5642 0 0
				CHANNELS 3 Zrotation Xrotation Yrotation
				JOINT Model56
				{
					OFFSET 21.2884 0 0
					CHANNELS 3 Zrotation Xrotation Yrotation
					JOINT Model57
					{
						OFFSET 30.261 0 0
						CHANNELS 3 Zrotation Xrotation Yrotation
						JOINT Model58
						{
							OFFSET 11.7259 0 0
							CHANNELS 3 Zrotation Xrotation Yrotation
							JOINT Model59
							{
								OFFSET 10.682 0 0
								CHANNELS 3 Zrotation Xrotation Yrotation
								End Site
								{
									OFFSET 0 0 0
								}
							}
						}
					}
				}
			}
		}
	}
	JOINT Model60
	{
		OFFSET -4.38026 -2.14632 -1.11517
		CHANNELS 3 Zrotation Xrotation Yrotation
		JOINT Model61
		{
			OFFSET 0 0 -4.94998
			CHANNELS 3 Zrotation Xrotation Yrotation
			JOINT Model62
			{
				OFFSET -18.5642 0 0
				CHANNELS 3 Zrotation Xrotation Yrotation
				JOINT Model63
				{
					OFFSET -21.2884 0 0
					CHANNELS 3 Zrotation Xrotation Yrotation
					JOINT Model64
					{
						OFFSET -30.261 0 0
						CHANNELS 3 Zrotation Xrotation Yrotation
						JOINT Model65
						{
							OFFSET -11.7259 0 0
							CHANNELS 3 Zrotation Xrotation Yrotation
							JOINT Model66
							{
								OFFSET -10.682 0 0
								CHANNELS 3 Zrotation Xrotation Yrotation
								End Site
								{
									OFFSET 0 0 0
								}
							}
						}
					}
				}
			}
		}
	}
}
MOTION
Frames: 4
Frame Time: 0.033333
317.927 175.324 -485.924 -83.5719 65.9982 -92.6489 -180 4.29621e-031 -90 2.19753 1.49186 -1.49955 4.43552 2.92414 -3.05673 4.43552 2.92457 -3.05677 53.8762 7.69634 2.62061 -80.8275 4.53846 4.22254 120.092 75.5343 58.4939 -7.89276 -10.403 -2.38801 -167.277 84.4999 48.8109 172.599 22.7919 18.1067 -1.20176e-005 52.6348 4.97133e-005 -13.0017 -16.9543 15.6763 -1.7078e-006 -26.7038 -1.95823e-006 -7.02849 0.877858 -14.2213 -72.0648 39.0385 39.3397 33.3638 2.10362 14.835 0.588947 0.308273 6.35287 -99.6409 81.413 100.35 -0.0181409 2.77838e-005 -0.117315 -0.124139 0.00241113 -0.799296 -79.8382 79.5773 80.5374 -0.000225773 -0.000220917 2.2183e-005 -0.000956221 0.000122902 -2.73362e-005 -66.7416 80.4058 67.2171 -0.000437129 1.59507e-005 -2.73323e-005 -0.000136599 -0.000109284 -5.46572e-005 -6.42159 81.2158 8.01779 -0.000218564 1.69053e-005 0.000212128 0.000901588 -0.000184805 -0.000218582 -59.9282 75.5373 58.5147 -12.43 -7.77789 -0.865781 -167.277 84.4999 48.8109 176.435 -4.93681 38.9421 6.76544e-006 0.292196 2.92421e-005 -1.33526 15.4424 -0.250347 -1.31649e-005 23.1954 7.44243e-006 -14.2858 0.381668 -3.04496 -72.0648 39.0385 39.3397 33.3638 2.10361 14.835 0.588946 0.308273 6.35287 -99.6409 81.413 100.35 -0.0181409 3.00771e-005 -0.117315 -0.124139 0.00241113 -0.799296 -79.8382 79.5773 80.5374 -0.000260642 -0.000218567 2.35748e-005 -0.000956221 0.000122995 -2.73148e-005 -66.7416 80.4058 67.2171 -0.000437128 1.48801e-005 -2.73165e-005 -0.000136598 -0.000109285 -5.46357e-005 -6.42159 81.2158 8.01779 -0.000218562 1.95782e-005 0.0002123 0.000901589 -0.000191246 -0.000218561 0.000811311 0.56661 89.91 11.1646 61.9553 6.44267 0.0028354 89.5853 -0.00281406 33.7854 -63.1231 -3.10332 180 -85.1956 180 -40.8591 -6.67221 6.14902 -35.4947 1.97873e-006 -4.35684e-008 -180 -0.566579 -90.09 -38.6175 -24.8505 -19.4753 -1.18728e-005 -31.9133 -3.29243e-006 25.7055 19.5653 -0.00354219 9.82176e-007 29.3007 2.39314e-006 -49.3925 8.56908 -6.84647 -35.4947 2.35265e-006 -3.22645e-007 
317.133 175.281 -488.957 -83.5648 64.1092 -93.087 -180 4.29621e-031 -90 2.24801 1.36295 -1.46312 4.53192 2.66655 -2.97982 4.53192 2.66698 -2.97985 54.7374 7.69504 2.15899 -81.1056 4.30087 4.56348 120.092 75.5343 58.4939 -7.50804 -10.5075 -2.45899 -167.277 84.4999 48.8109 171.93 23.4376 18.3729 -1.35187e-005 53.6601 5.09145e-005 -13.6096 -17.9003 15.211 -1.76263e-006 -28.1189 -1.98347e-006 -7.2268 0.869398 -13.7019 -72.0648 39.0385 39.3397 33.3638 2.10362 14.835 0.588947 0.308273 6.35287 -99.6409 81.413 100.35 -0.0181409 2.77838e-005 -0.117315 -0.124139 0.00241113 -0.799296 -79.8382 79.5773 80.5374 -0.000225773 -0.000220917 2.2183e-005 -0.000956221 0.000122902 -2.73362e-005 -66.7416 80.4058 67.2171 -0.000437129 1.59507e-005 -2.73323e-005 -0.000136599 -0.000109284 -5.46572e-005 -6.42159 81.2158 8.01779 -0.000218564 1.69053e-005 0.000212128 0.000901588 -0.000184805 -0.000218582 -59.9282 75.5373 58.5147 -12.6561 -8.00811 -0.944322 -167.277 84.4999 48.8109 176.57 -4.87307 39.0259 6.76537e-006 0.292323 2.92421e-005 -1.31385 15.9873 -0.265876 -1.32812e-005 24.0132 7.48899e-006 -14.3972 0.431797 -3.41773 -72.0648 39.0385 39.3397 33.3638 2.10361 14.835 0.588946 0.308273 6.35287 -99.6409 81.413 100.35 -0.0181409 3.00771e-005 -0.117315 -0.124139 0.00241113 -0.799296 -79.8382 79.5773 80.5374 -0.000260642 -0.000218567 2.35748e-005 -0.000956221 0.000122995 -2.73148e-005 -66.7416 80.4058 67.2171 -0.000437128 1.48801e-005 -2.73165e-005 -0.000136598 -0.000109285 -5.46357e-005 -6.42159 81.2158 8.01779 -0.000218562 1.95782e-005 0.0002123 0.000901589 -0.000191246 -0.000218561 0.000811311 0.56661 89.91 13.5621 61.8578 5.1751 0.244365 89.9952 -0.244343 31.5925 -62.5771 -4.20429 180 -85.9732 180 -42.3708 -6.73935 5.97946 -35.4947 2.07225e-006 -9.77347e-008 -180 -0.566579 -90.09 -39.9486 -29.4814 -18.6523 -1.24433e-005 -39.5866 -3.62646e-006 19.3388 26.1248 -0.0028045 4.54072e-007 39.1538 2.69129e-006 -48.6125 6.23228 -5.06562 -35.4947 2.63892e-006 -3.56609e-007 
316.241 175.075 -492.208 -84.5895 61.9742 -92.7359 -180 4.29621e-031 -90 2.33307 1.23342 -1.44086 4.69797 2.40632 -2.93173 4.69797 2.40675 -2.93176 55.7843 7.97952 2.29158 -81.1067 4.61123 4.53245 120.092 75.5343 58.4939 -6.70849 -10.33 -2.44988 -167.277 84.4999 48.8109 171.733 23.4928 18.853 -1.34986e-005 53.6466 5.08983e-005 -13.8359 -17.941 15.0547 -1.76445e-006 -28.1651 -1.98433e-006 -7.25241 0.817497 -12.8457 -72.0648 39.0385 39.3397 33.3638 2.10362 14.835 0.588947 0.308273 6.35287 -99.6409 81.413 100.35 -0.0181409 2.77838e-005 -0.117315 -0.124139 0.00241113 -0.799296 -79.8382 79.5773 80.5374 -0.000225773 -0.000220917 2.2183e-005 -0.000956221 0.000122902 -2.73362e-005 -66.7416 80.4058 67.2171 -0.000437129 1.59507e-005 -2.73323e-005 -0.000136599 -0.000109284 -5.46572e-005 -6.42159 81.2158 8.01779 -0.000218564 1.69053e-005 0.000212128 0.000901588 -0.000184805 -0.000218582 -59.9282 75.5373 58.5147 -13.2161 -8.45585 -1.08833 -167.277 84.4999 48.8109 176.704 -4.86347 38.9304 6.76642e-006 0.290282 2.92421e-005 -1.29491 16.4683 -0.279968 -1.33851e-005 24.7351 7.53187e-006 -14.5468 0.465626 -3.64705 -72.0648 39.0385 39.3397 33.3638 2.10361 14.835 0.588946 0.308273 6.35287 -99.6409 81.413 100.35 -0.0181409 3.00771e-005 -0.117315 -0.124139 0.00241113 -0.799296 -79.8382 79.5773 80.5374 -0.000260642 -0.000218567 2.35748e-005 -0.000956221 0.000122995 -2.73148e-005 -66.7416 80.4058 67.2171 -0.000437128 1.48801e-005 -2.73165e-005 -0.000136598 -0.000109285 -5.46357e-005 -6.42159 81.2158 8.01779 -0.000218562 1.95782e-005 0.0002123 0.000901589 -0.000191246 -0.000218561 0.000811311 0.56661 89.91 16.805 61.4779 3.6743 179.99 89.8802 -179.99 28.4964 -61.767 -6.38596 180 -87.0626 180 -43.918 -6.84534 5.83966 -35.4947 2.12324e-006 -1.46139e-007 -180 -0.566579 -90.09 -41.1196 -31.9553 -18.5049 -1.28032e-005 -43.7012 -3.86578e-006 17.1658 30.7773 -0.00259336 -1.8155e-008 46.1374 3.0118e-006 -49.5869 4.25045 -3.49167 -35.4947 2.86414e-006 -3.85267e-007 
315.271 174.812 -495.642 -86.1713 59.5814 -91.9945 -180 4.29621e-031 -90 2.41361 1.09987 -1.41587 4.85491 2.13836 -2.87757 4.85491 2.13879 -2.87761 57.0036 8.56579 3.08813 -80.9398 5.61709 3.94028 120.092 75.5343 58.4939 -5.74516 -9.84252 -2.33872 -167.277 84.4999 48.8109 172.216 22.9649 19.3192 -1.20087e-005 52.6286 4.97062e-005 -13.5998 -17.0559 15.2779 -1.71225e-006 -26.82 -1.96023e-006 -7.15495 0.747661 -11.9157 -72.0648 39.0385 39.3397 33.3638 2.10362 14.835 0.588947 0.308273 6.35287 -99.6409 81.413 100.35 -0.0181409 2.77838e-005 -0.117315 -0.124139 0.00241113 -0.799296 -79.8382 79.5773 80.5374 -0.000225773 -0.000220917 2.2183e-005 -0.000956221 0.000122902 -2.73362e-005 -66.7416 80.4058 67.2171 -0.000437129 1.59507e-005 -2.73323e-005 -0.000136599 -0.000109284 -5.46572e-005 -6.42159 81.2158 8.01779 -0.000218564 1.69053e-005 0.000212128 0.000901588 -0.000184805 -0.000218582 -59.9282 75.5373 58.5147 -14.0488 -9.03879 -1.27414 -167.277 84.4999 48.8109 176.811 -4.9242 38.628 6.76865e-006 0.28591 2.92421e-005 -1.29166 16.5514 -0.282414 -1.34032e-005 24.8598 7.53945e-006 -14.7079 0.456286 -3.53439 -72.0648 39.0385 39.3397 33.3638 2.10361 14.835 0.588946 0.308273 6.35287 -99.6409 81.413 100.35 -0.0181409 3.00771e-005 -0.117315 -0.124139 0.00241113 -0.799296 -79.8382 79.5773 80.5374 -0.000260642 -0.000218567 2.35748e-005 -0.000956221 0.000122995 -2.73148e-005 -66.7416 80.4058 67.2171 -0.000437128 1.48801e-005 -2.73165e-005 -0.000136598 -0.000109285 -5.46357e-005 -6.42159 81.2158 8.01779 -0.000218562 1.95782e-005 0.0002123 0.000901589 -0.000191246 -0.000218561 0.000811311 0.56661 89.91 20.0565 59.0674 2.29522 0.000428365 87.1348 -0.000407469 21.9757 -58.7191 -11.9928 -0.000206052 -88.9771 -0.000206482 -45.8474 -7.35237 5.97255 -35.4947 2.12656e-006 -1.87687e-007 -180 -0.566579 -90.09 -40.7541 -32.3289 -18.5193 -1.28496e-005 -44.1947 -3.89801e-006 16.6803 32.8099 -0.00232507 -2.63338e-007 49.1874 3.1931e-006 -49.8348 3.00905 -2.53466 -35.4947 3.03214e-006 -4.08801e-007 
